General

The Avengers Earths Mightiest Heroes 2010 S01E04 720p WEB-DL x264-T00NG0D BOZX


Complete name                    : The.Avengers.Earths.Mightiest.Heroes.2010.S01E04.Meet.Captain.America.720p.WEB-DL.AC3-5.1.x264-T00NG0D.mkv
Format                           : Matroska
File size                        : 735 MiB
Duration                         : 23mn 7s
Overall bit rate                 : 4 443 Kbps
Encoded date                     : UTC 2010-10-22 03:46:24
Writing application              : mkvmerge v4.0.0 ('The Stars were mine') built on Jun  5 2010 17:44:09
Writing library                  : libebml v1.0.0 + libmatroska v1.0.0

Video
ID                               : 1
Format                           : AVC
Format/Info                      : Advanced Video Codec
Format profile                   : High@L3.1
Format settings, CABAC           : No
Format settings, ReFrames        : 2 frames
Format settings, GOP             : M=2, N=32
Muxing mode                      : Container profile=Unknown@3.1
Codec ID                         : V_MPEG4/ISO/AVC
Duration                         : 23mn 7s
Bit rate mode                    : Variable
Bit rate                         : 3 971 Kbps
Width                            : 1 280 pixels
Height                           : 718 pixels
Display aspect ratio             : 16:9
Frame rate                       : 23.976 fps
Color space                      : YUV
Chroma subsampling               : 4:2:0
Bit depth                        : 8 bits
Scan type                        : Progressive
Bits/(Pixel*Frame)               : 0.180
Stream size                      : 657 MiB (89%)
Language                         : English
Color primaries                  : BT.709-5, BT.1361, IEC 61966-2-4, SMPTE RP177
Transfer characteristics         : BT.709-5, BT.1361
Matrix coefficients              : BT.709-5, BT.1361, IEC 61966-2-4 709, SMPTE RP177

Audio
ID                               : 2
Format                           : AC-3
Format/Info                      : Audio Coding 3
Mode extension                   : CM (complete main)
Codec ID                         : A_AC3
Duration                         : 23mn 7s
Bit rate mode                    : Constant
Bit rate                         : 384 Kbps
Channel(s)                       : 6 channels
Channel positions                : Front: L C R, Side: L R, LFE
Sampling rate                    : 48.0 KHz
Bit depth                        : 16 bits
Stream size                      : 63.5 MiB (9%)
Language                         : English
Source                           : CN HD